<?xml version="1.0" encoding="utf-8"?>
<!-- Generator: Adobe Illustrator 24.0.2, SVG Export Plug-In . SVG Version: 6.00 Build 0)  -->
<svg version="1.1" id="Layer_1" xmlns="http://www.w3.org/2000/svg" xmlns:xlink="http://www.w3.org/1999/xlink" x="0px" y="0px"
	 viewBox="0 0 1000 1000" style="enable-background:new 0 0 1000 1000;" xml:space="preserve">
<style type="text/css">
	.st0{fill:#2E3192;}
	.st1{font-family:'NexaBold';}
	.st2{font-size:92.8016px;}
	.st3{font-family:'NexaLight';}
</style>
<g>
	<g>
		<g>
			<path class="st0" d="M590.47,479.14c-1.3-0.22-2.62-0.38-3.91-0.67c-7.29-1.67-12.05-9.99-9.67-16.85
				c1.37-3.92,4.6-6.15,8.96-6.17c3.97-0.02,7.71,2.55,9.07,6.21c2.49,6.73-2.64,13.58-9.79,13.09c-0.28-0.02-0.56,0-1.11,0
				c1.89,1.43,3.9,1.84,5.87,2.02c2.77,0.25,5.64,0.56,8.35,0.14c5.15-0.81,8.21-4.35,9.62-9.16c2.27-7.74,1.05-15.3-1.6-22.65
				c-2.35,0.62-4.53,1.38-6.77,1.74c-5.97,0.96-11.67-0.32-17.16-2.61c-4.93-2.06-9.26-5.01-12.88-8.97
				c-4.94-5.4-6.33-11.91-5.71-18.94c0.74-8.42,4.47-15.63,9.34-22.36c4.78-6.6,10.67-12.14,16.83-17.4
				c0.99-0.85,1.27-1.63,1.02-2.91c-0.72-3.72-1.42-7.46-1.88-11.22c-1.3-10.57,1.57-20.1,7.45-28.83c1.07-1.59,2.2-3.16,3.4-4.65
				c1.46-1.82,3.16-1.79,4.52,0.09c8.96,12.39,11.63,25.79,6.13,40.35c-2.48,6.57-6.88,11.87-12.24,16.24
				c-2.41,1.97-2.87,3.75-2.05,6.6c1.18,4.11,1.9,8.35,2.82,12.54c0.06,0.28,0.17,0.56,0.2,0.66c2.8,0.2,5.53,0.16,8.16,0.62
				c9.13,1.59,14.36,8.02,14.71,17.29c0.31,8.03-3.35,13.75-9.66,18.15c-0.53,0.37-1.07,0.7-1.61,1.05c-2.77,1.76-2.76,1.76-1.99,5
				c1.14,4.8,2.2,9.61,2.06,14.59c-0.2,7.56-3.54,13.01-10.75,15.73c-1.68,0.63-3.51,0.87-5.27,1.29
				C593.43,479.14,591.95,479.14,590.47,479.14z M593.62,389.64c-4.47,3.88-8.83,7.42-12.92,11.26c-5.24,4.93-9.19,10.7-9.95,18.13
				c-0.66,6.48,0.68,12.44,4.81,17.62c7.01,8.79,19.52,10.54,28.93,6.5c0.82-0.35,0.79-0.79,0.63-1.49
				c-1.29-5.77-2.55-11.54-3.82-17.31c-0.75-3.4-1.52-6.8-2.27-10.18c-3.93,0.16-7.25,1.84-9.3,4.87
				c-3.57,5.29-2.9,10.42,1.21,15.45c-4.95-1.24-8.49-5.73-8.73-10.24c-0.38-6.96,2.79-12.16,8.45-15.88
				c1.93-1.27,4.23-1.98,6.44-2.99C595.98,400.33,594.84,395.16,593.62,389.64z M592.6,374.44c0.89-0.53,1.72-0.84,2.28-1.4
				c2.54-2.54,5.04-5.12,7.49-7.74c4.1-4.4,6.79-9.53,7.5-15.56c0.4-3.42,0.15-6.79-1.74-9.84c-2.07-3.35-5.82-3.74-8.39-0.79
				c-0.86,0.99-1.56,2.15-2.21,3.3c-3.32,5.86-4.64,12.3-5.24,18.91C591.89,365.59,591.77,369.87,592.6,374.44z M607.17,441.58
				c6.31-2.82,9.94-11.38,7.88-18.41c-1.8-6.14-7.79-9.39-13.91-8.94C603.15,423.32,605.14,432.39,607.17,441.58z"/>
		</g>
		<g>
			<path class="st0" d="M388.33,479.14c-1.3-0.22-2.62-0.38-3.91-0.67c-7.29-1.67-12.05-9.99-9.67-16.85
				c1.37-3.92,4.6-6.15,8.96-6.17c3.97-0.02,7.71,2.55,9.07,6.21c2.49,6.73-2.64,13.58-9.79,13.09c-0.28-0.02-0.56,0-1.11,0
				c1.89,1.43,3.9,1.84,5.87,2.02c2.77,0.25,5.64,0.56,8.35,0.14c5.15-0.81,8.21-4.35,9.62-9.16c2.27-7.74,1.05-15.3-1.6-22.65
				c-2.35,0.62-4.53,1.38-6.77,1.74c-5.97,0.96-11.67-0.32-17.16-2.61c-4.93-2.06-9.26-5.01-12.88-8.97
				c-4.94-5.4-6.33-11.91-5.71-18.94c0.74-8.42,4.47-15.63,9.34-22.36c4.78-6.6,10.67-12.14,16.83-17.4
				c0.99-0.85,1.27-1.63,1.02-2.91c-0.72-3.72-1.42-7.46-1.88-11.22c-1.3-10.57,1.57-20.1,7.45-28.83c1.07-1.59,2.2-3.16,3.4-4.65
				c1.46-1.82,3.16-1.79,4.52,0.09c8.96,12.39,11.63,25.79,6.13,40.35c-2.48,6.57-6.88,11.87-12.24,16.24
				c-2.41,1.97-2.87,3.75-2.05,6.6c1.18,4.11,1.9,8.35,2.82,12.54c0.06,0.28,0.17,0.56,0.2,0.66c2.8,0.2,5.53,0.16,8.16,0.62
				c9.13,1.59,14.36,8.02,14.71,17.29c0.31,8.03-3.35,13.75-9.66,18.15c-0.53,0.37-1.07,0.7-1.61,1.05c-2.77,1.76-2.76,1.76-1.99,5
				c1.14,4.8,2.2,9.61,2.06,14.59c-0.2,7.56-3.54,13.01-10.75,15.73c-1.68,0.63-3.51,0.87-5.27,1.29
				C391.29,479.14,389.81,479.14,388.33,479.14z M391.49,389.64c-4.47,3.88-8.83,7.42-12.92,11.26c-5.24,4.93-9.19,10.7-9.95,18.13
				c-0.66,6.48,0.68,12.44,4.81,17.62c7.01,8.79,19.52,10.54,28.93,6.5c0.82-0.35,0.79-0.79,0.63-1.49
				c-1.29-5.77-2.55-11.54-3.82-17.31c-0.75-3.4-1.52-6.8-2.27-10.18c-3.93,0.16-7.25,1.84-9.3,4.87
				c-3.57,5.29-2.9,10.42,1.21,15.45c-4.95-1.24-8.49-5.73-8.73-10.24c-0.38-6.96,2.79-12.16,8.45-15.88
				c1.93-1.27,4.23-1.98,6.44-2.99C393.85,400.33,392.71,395.16,391.49,389.64z M390.46,374.44c0.89-0.53,1.72-0.84,2.28-1.4
				c2.54-2.54,5.04-5.12,7.49-7.74c4.1-4.4,6.79-9.53,7.5-15.56c0.4-3.42,0.15-6.79-1.74-9.84c-2.07-3.35-5.82-3.74-8.39-0.79
				c-0.86,0.99-1.56,2.15-2.21,3.3c-3.32,5.86-4.64,12.3-5.24,18.91C389.76,365.59,389.64,369.87,390.46,374.44z M405.04,441.58
				c6.31-2.82,9.94-11.38,7.88-18.41c-1.8-6.14-7.79-9.39-13.91-8.94C401.01,423.32,403.01,432.39,405.04,441.58z"/>
		</g>
	</g>
	<g>
		<path class="st0" d="M437.66,309.76c-1.91-22.15-3.8-43.91-5.71-66c10.85-0.28,21.43-0.56,32.24-0.84
			c0.38,7.8,0.76,15.35,1.13,23.01c3.62,0,7.14,0,10.97,0c-0.28-7.88-0.55-15.56-0.83-23.33c13.12,0,26.05,0,39.19,0
			c0,7.59,0,14.96,0,22.48c3.53,0,6.85,0,10.51,0c0-0.8,0-1.57,0-2.34c0-5.98,0.02-11.95-0.01-17.93c-0.01-1.21,0.23-1.89,1.67-1.86
			c8.96,0.16,17.93,0.25,26.89,0.38c0.13,0,0.26,0.11,0.74,0.31c-1.75,21.84-3.51,43.81-5.3,66.13c-3.32,0-6.72,0.08-10.11-0.03
			c-1.62-0.05-2.62,0.43-3.62,1.77c-5.48,7.43-12.75,12.49-21.38,15.65c-1.06,0.39-1.93,0.64-1.96,2.13
			c-0.53,23.8,0.99,47.36,8.06,70.27c2.99,9.68,7.16,18.8,13.73,26.64c1.35,1.62,2.82,3.16,4.39,4.57c1.08,0.96,1.12,1.77,0.56,3.01
			c-2.49,5.51-4.88,11.06-7.31,16.59c0.6,0.41,1.24,0.7,1.66,1.18c6.55,7.48,11.51,15.78,12.83,25.84
			c1.39,10.58-2.44,19.28-9.88,26.61c-0.78,0.76-1.58,1.5-2.61,2.47c7.64,8.99,15.25,17.95,22.5,26.48
			c-0.55,1.59-0.95,2.77-1.35,3.94c0.15,0.09,0.3,0.18,0.45,0.28c-0.52,0.21-1.03,0.46-1.57,0.62
			c-23.88,7.2-48.21,11.38-73.22,10.76c-16.56-0.41-32.81-2.78-48.39-8.7c-1.49-0.57-2.93-1.25-4.36-1.87
			c0.07-1.62,2.13-2.79,0.64-4.53c-0.12-0.14,0.59-1.07,0.99-1.57c6.49-8.34,13-16.67,19.5-25c0.49-0.62,0.95-1.27,1.5-2.02
			c-0.9-0.86-1.74-1.64-2.56-2.44c-10.25-10.04-12.77-21.84-7.88-35.25c2.17-5.95,5.49-11.26,9.62-16.04
			c0.95-1.1,1.1-1.96,0.55-3.29c-1.66-4.04-3.22-8.13-4.69-12.24c-0.25-0.71-0.18-2.01,0.29-2.45c8.17-7.6,12.75-17.28,16.1-27.66
			c4.39-13.62,6.52-27.68,7.14-41.9c0.52-11.71,0.19-23.45,0.28-35.18c0.01-1.42-0.44-2.19-1.82-2.77
			c-7.61-3.21-14.02-7.98-18.84-14.78c-0.41-0.58-1.39-1.01-2.13-1.04C443.44,309.69,440.61,309.76,437.66,309.76z M476.06,329
			c0,1.13-0.05,2.43,0.01,3.73c0.77,19.21-0.05,38.32-3.6,57.24c-2.65,14.13-6.76,27.74-15.01,39.77c-0.1,0.14-0.05,0.39-0.08,0.79
			c23.3-0.45,46.53-0.89,70.18-1.34c-8.35-11.08-13.04-23.18-16.25-35.92c-5.04-20-6.43-40.38-6.09-60.92c0.01-0.85,0-1.71,0-2.39
			c-5.01,0.19-9.8,0.63-14.57,0.46C485.8,330.27,480.97,329.51,476.06,329z M485.84,505.83c16.47-0.06,29.69-2.06,42.8-5.01
			c0.68-0.15,1.43-0.44,1.94-0.9c5.85-5.39,9.43-11.83,8.86-20.04c-0.61-8.83-4.87-16.05-10.35-22.66
			c-0.36-0.44-1.56-0.48-2.26-0.29c-3.66,0.97-7.24,2.24-10.92,3.1c-20.38,4.78-40.44,4.57-59.92-4.11
			c-0.55-0.24-1.73,0.03-2.11,0.48c-3.61,4.35-6.47,9.15-8.24,14.55c-3.23,9.87-1.23,18.57,6.1,25.9c1.75,1.75,3.89,3.4,6.17,4.26
			C467.85,504.85,478.27,505.88,485.84,505.83z M458.81,272.75c-0.38-7.55-0.76-15.14-1.12-22.53c-6.22,0-12.09,0-18.13,0
			c0,0.89-0.04,1.45,0.01,2.01c1.04,12.27,2.12,24.54,3.08,36.82c0.14,1.82,1.17,1.65,2.37,1.64c32.29-0.24,64.57-0.48,96.86-0.66
			c1.74-0.01,2.19-0.58,2.31-2.23c0.62-8.65,1.36-17.29,2.05-25.93c0.31-3.89,0.59-7.79,0.89-11.86c-5.18,0-10.08,0-15.2,0
			c0,7.35,0,14.54,0,21.86c-8.11,0-16,0-24.1,0c0-7.53,0-14.92,0-22.43c-8.53,0-16.85,0-25.36,0c0.27,7.8,0.54,15.39,0.81,23.31
			C474.98,272.75,467.06,272.75,458.81,272.75z M435.96,534.24c37.37,11.62,73.99,8.44,110.77-1.44c-0.31-0.54-0.42-0.81-0.59-1.02
			c-6.36-7.5-12.71-15-19.14-22.44c-0.44-0.51-1.51-0.79-2.22-0.68c-4.89,0.75-9.75,1.76-14.65,2.45
			c-17.62,2.45-35.13,2.74-52.33-2.88c-0.57-0.19-1.66,0.28-2.09,0.79c-2.5,3.03-4.88,6.17-7.3,9.27
			C444.38,523.44,440.35,528.61,435.96,534.24z M453.21,437.39c0.68,1.85,1.24,3.42,1.83,4.96c2.88,7.48,2.87,7.52,10.52,9.99
			c17.96,5.8,35.89,4.76,53.85-0.15c3.33-0.91,5.44-2.4,6.5-5.76c0.92-2.9,2.4-5.62,3.62-8.43c0.24-0.57,0.41-1.16,0.72-2.05
			C504.47,436.43,478.99,436.9,453.21,437.39z M527.71,309.97c-23.81,0-47.41,0-71.17,0C470.44,327.02,511.81,329.75,527.71,309.97z
			 M543.4,296.73c-33.49,0.26-66.61,0.51-99.85,0.77c0,0.79-0.02,1.29,0,1.78c0.17,3.71,0.17,3.71,3.93,3.71c30.83,0,61.66,0,92.5,0
			c0.92,0,1.84,0,2.91,0C543.07,300.82,543.22,298.96,543.4,296.73z"/>
	</g>
	<g>
		<text transform="matrix(1 0 0 1 90.2546 638.9707)" class="st0 st1 st2">Messiah Software</text>
		<g>
			<text transform="matrix(1 0 0 1 324.7327 727.5146)" class="st0 st3 st2">Solutions LTD</text>
		</g>
	</g>
</g>
</svg>
